<svg id="Lager_1" data-name="Lager 1" xmlns="http://www.w3.org/2000/svg" viewBox="0 0 622.34 132.17"><defs><style>.cls-1{fill:#1d1d1b;}</style></defs><path class="cls-1" d="M146.29,54.55c-7.25,0-12.44,3.24-15.31,8.25h-.19V34.6h-8.08V88.9c0,4-.18,8.53-.37,11.59h7.06l.37-7.42H130c3.35,5.94,8.55,8.44,15,8.44,10,0,20.14-8,20.14-24C165.31,63.83,157.42,54.55,146.29,54.55ZM143.41,95a12.62,12.62,0,0,1-12.25-9.56,16,16,0,0,1-.37-3V74.41a15.83,15.83,0,0,1,.46-3.34,13,13,0,0,1,12.44-10c8.72,0,13.36,7.7,13.36,16.71C157.05,88.06,151.94,95,143.41,95Z" transform="translate(0 0)"/><path class="cls-1" d="M210.15,75.71c0-8.26-3.91-21.16-18.57-21.16-13.09,0-21.07,10.67-21.07,24.22s8.26,22.65,22.1,22.65a36.58,36.58,0,0,0,14.94-2.78l-1.39-5.85a29.76,29.76,0,0,1-12.45,2.31c-8.16,0-15.22-4.54-15.41-15.58h31.56A31.07,31.07,0,0,0,210.15,75.71Zm-7.9-2H178.4c.66-5.67,4.26-13.28,12.53-13.28C200.12,60.39,202.35,68.47,202.25,73.67Z" transform="translate(0 0)"/><path class="cls-1" d="M217.39,92.14a21.36,21.36,0,0,0,10.76,3.25c5.94,0,8.73-3,8.73-6.68,0-3.9-2.32-6-8.36-8.27-8.07-2.87-11.88-7.33-11.88-12.71,0-7.24,5.85-13.18,15.5-13.18a22.51,22.51,0,0,1,11.05,2.78l-2,5.94a17.56,17.56,0,0,0-9.19-2.6c-4.83,0-7.52,2.79-7.52,6.13,0,3.71,2.69,5.38,8.54,7.61,7.79,3,11.78,6.87,11.78,13.55,0,7.89-6.12,13.46-16.79,13.46a25.73,25.73,0,0,1-12.63-3.06Z" transform="translate(0 0)"/><rect class="cls-1" x="253.4" y="34.59" width="8.17" height="65.9"/><path class="cls-1" d="M305,89.72V72.93c0-9-3.34-18.38-17.07-18.38a27.89,27.89,0,0,0-14.76,4L275,63.93a22.34,22.34,0,0,1,11.7-3.36c9.19,0,10.21,6.69,10.21,10.4v.94c-17.36-.1-27,5.84-27,16.7,0,6.49,4.64,12.9,13.73,12.9a16.71,16.71,0,0,0,13.74-6.68h.28l.65,5.66h7.42A62.88,62.88,0,0,1,305,89.72Zm-7.88-4.36a8.5,8.5,0,0,1-.47,2.6,11.18,11.18,0,0,1-10.87,7.51c-4.17,0-7.7-2.5-7.7-7.78,0-8.74,10.12-10.31,19-10.13Z" transform="translate(0 0)"/><path class="cls-1" d="M348,55.57l-.38,6.78h-.19c-1.94-3.72-6.21-7.8-14-7.8-10.31,0-20.24,8.62-20.24,23.85,0,12.44,8,21.9,19.12,21.9,7,0,11.78-3.34,14.3-7.51h.18v5c0,11.32-6.12,15.68-14.48,15.68A25.2,25.2,0,0,1,319.12,110l-2.05,6.22c3.62,2.42,9.56,3.71,14.94,3.71,5.66,0,12-1.29,16.34-5.38,4.36-3.9,6.4-10.22,6.4-20.51V67.92c0-5.48.19-9.11.37-12.35Zm-1.31,25.8a14,14,0,0,1-.65,4.36,11.93,11.93,0,0,1-11.32,8.35c-8.81,0-13.27-7.33-13.27-16.15,0-10.38,5.57-17,13.37-17a11.75,11.75,0,0,1,11.41,8.62,11.47,11.47,0,0,1,.46,3.72Z" transform="translate(0 0)"/><path class="cls-1" d="M423.25,88.9V34.6h-8.17V61.41h-.19c-2-3.62-6.67-6.86-13.55-6.86-10.95,0-20.22,9.19-20.14,24.13,0,13.64,8.35,22.83,19.22,22.83,7.33,0,12.8-3.81,15.31-8.82h.19l.37,7.8h7.32C423.34,97.43,423.25,92.89,423.25,88.9Zm-8.17-7.25a14.12,14.12,0,0,1-.37,3.53,12.28,12.28,0,0,1-12,9.74c-8.83,0-13.27-7.52-13.27-16.61,0-9.94,5-17.35,13.45-17.35a12,12,0,0,1,11.79,9.46,14.3,14.3,0,0,1,.37,3.43Z" transform="translate(0 0)"/><path class="cls-1" d="M478.57,92.14a21.4,21.4,0,0,0,10.77,3.25c5.94,0,8.72-3,8.72-6.68,0-3.9-2.32-6-8.35-8.27-8.07-2.87-11.88-7.33-11.88-12.71,0-7.24,5.85-13.18,15.5-13.18a22.43,22.43,0,0,1,11,2.78l-2,5.94a17.5,17.5,0,0,0-9.19-2.6c-4.82,0-7.52,2.79-7.52,6.13,0,3.71,2.7,5.38,8.54,7.61C502,77.38,506,81.28,506,88c0,7.89-6.12,13.46-16.8,13.46a25.66,25.66,0,0,1-12.62-3.06Z" transform="translate(0 0)"/><path class="cls-1" d="M514.59,55.57v44.92h8.16V55.57Zm4.07-17.74a5,5,0,0,0-5.1,5.12,4.86,4.86,0,0,0,4.92,5c3.25,0,5.28-2.23,5.2-5A4.86,4.86,0,0,0,518.66,37.83Z" transform="translate(0 0)"/><path class="cls-1" d="M566.09,55.57l-.37,6.78h-.18c-1.95-3.72-6.22-7.8-14-7.8-10.3,0-20.23,8.62-20.23,23.85,0,12.44,8,21.9,19.12,21.9,7,0,11.79-3.34,14.29-7.51h.2v5c0,11.32-6.14,15.68-14.49,15.68A25.3,25.3,0,0,1,537.23,110l-2.05,6.22c3.63,2.42,9.56,3.71,15,3.71,5.66,0,12-1.29,16.33-5.38,4.37-3.9,6.41-10.22,6.41-20.51V67.92c0-5.48.19-9.11.37-12.35Zm-1.29,25.8a14,14,0,0,1-.66,4.36,11.92,11.92,0,0,1-11.32,8.35c-8.82,0-13.28-7.33-13.28-16.15,0-10.38,5.58-17,13.37-17A12,12,0,0,1,564.8,73.3Z" transform="translate(0 0)"/><path class="cls-1" d="M584.1,67.73c0-4.64-.09-8.45-.37-12.16H591l.47,7.43h.18a16.5,16.5,0,0,1,14.85-8.45c6.22,0,15.87,3.71,15.87,19.12v26.82h-8.17V74.6c0-7.24-2.69-13.27-10.39-13.27a11.6,11.6,0,0,0-10.95,8.35,11.75,11.75,0,0,0-.56,3.8v27H584.1Z" transform="translate(0 0)"/><path class="cls-1" d="M69,65.33a37.82,37.82,0,0,1-36.64,38.05H12.23A11.49,11.49,0,0,1,.73,91.9V6A5.89,5.89,0,0,1,6.37,0a5.75,5.75,0,0,1,5.86,5.74V91.89s0,0,0,0H32.1a26.6,26.6,0,0,0,0-53.14,5.74,5.74,0,0,1,.43-11.47A37.84,37.84,0,0,1,69,65.33Z" transform="translate(0 0)"/><path class="cls-1" d="M30,132.17A64.58,64.58,0,0,1,3.4,126.52,5.74,5.74,0,1,1,8.08,116,53.32,53.32,0,0,0,30,120.68,54,54,0,0,0,32.34,12.81a5.74,5.74,0,1,1,.5-11.47A65.45,65.45,0,0,1,30,132.17Z" transform="translate(0 0)"/><path class="cls-1" d="M471,75.71c0-8.26-3.9-21.16-18.56-21.16-13.1,0-21.08,10.67-21.08,24.22s8.27,22.65,22.1,22.65a36.58,36.58,0,0,0,14.94-2.78L467,92.79a29.74,29.74,0,0,1-12.44,2.31c-8.17,0-15.23-4.54-15.41-15.58h31.56A33.72,33.72,0,0,0,471,75.71Zm-7.9-2H439.27c.65-5.67,4.26-13.28,12.52-13.28C461,60.39,463.21,68.47,463.11,73.67Z" transform="translate(0 0)"/></svg>