<svg version="1.1" viewBox="0.0 0.0 960.0 720.0" fill="none" stroke="none" stroke-linecap="square" stroke-miterlimit="10" xmlns:xlink="http://www.w3.org/1999/xlink" xmlns="http://www.w3.org/2000/svg"><clipPath id="p.0"><path d="m0 0l960.0 0l0 720.0l-960.0 0l0 -720.0z" clip-rule="nonzero"/></clipPath><g clip-path="url(#p.0)"><path fill="#000000" fill-opacity="0.0" d="m0 0l960.0 0l0 720.0l-960.0 0z" fill-rule="evenodd"/><path fill="#000000" fill-opacity="0.0" d="m139.13124 144.68242l188.31496 0l0 180.97636l-188.31496 0z" fill-rule="evenodd"/><path fill="#d9d9d9" d="m285.30148 236.88554q0 8.59375 -1.796875 15.28125q-1.78125 6.6718597 -5.046875 11.624985q-3.25 4.9375 -7.90625 8.390625q-4.6405945 3.453125 -10.3437195 5.53125q-5.7031403 2.078125 -12.375015 3.03125q-6.671875 0.9375 -14.015625 0.9375l-46.171875 0l0 -89.45311l46.03125 0q11.0 0 20.4375 2.15625q9.45314 2.140625 16.374985 7.328125q6.9375 5.171875 10.875 13.765625q3.9375 8.59375 3.9375 21.40625zm-8.390625 0q0 -7.28125 -1.4375 -12.875q-1.4375 -5.609375 -4.109375 -9.734375q-2.65625 -4.140625 -6.4999695 -6.9375q-3.84375 -2.796875 -8.671875 -4.515625q-4.8125153 -1.734375 -10.48439 -2.453125q-5.65625 -0.71875 -12.03125 -0.71875l-37.890625 0l0 74.54686l37.890625 0q9.578125 0 17.515625 -1.71875q7.9375153 -1.734375 13.625015 -6.0q5.7030945 -4.265625 8.8905945 -11.45311q3.203125 -7.203125 3.203125 -18.140625z" fill-rule="nonzero"/><path fill="#000000" fill-opacity="0.0" d="m105.76378 138.04987l188.31496 0l0 180.97638l-188.31496 0z" fill-rule="evenodd"/><path fill="#000000" d="m247.61479 213.06549q0 6.71875 -2.1875 11.859375q-2.1875 5.140625 -6.875 8.65625q-4.6875 3.515625 -12.078125 5.3125q-7.375 1.78125 -17.796875 1.78125l-40.171875 0l0 34.375l-8.140625 0l0 -89.453125l48.3125 0q10.421875 0 17.796875 1.796875q7.390625 1.78125 12.078125 5.234375q4.6875 3.453125 6.875 8.59375q2.1875 5.140625 2.1875 11.84375zm-8.40625 0q0 -6.375 -2.125 -10.28125q-2.109375 -3.90625 -6.5 -6.015625q-4.390625 -2.125 -11.140625 -2.828125q-6.734375 -0.71875 -15.96875 -0.71875l-34.96875 0l0 39.84375l34.96875 0q3.578125 0 7.640625 0.03125q4.078125 0.03125 8.046875 -0.390625q3.96875 -0.421875 7.578125 -1.5q3.609375 -1.078125 6.375 -3.28125q2.78125 -2.21875 4.4375 -5.796875q1.65625 -3.59375 1.65625 -9.0625z" fill-rule="nonzero"/><path fill="#000000" fill-opacity="0.0" d="m134.86089 138.04987l188.31496 0l0 180.97638l-188.31496 0z" fill-rule="evenodd"/><path fill="#000000" d="m281.03116 230.25299q0 8.59375 -1.796875 15.28125q-1.78125 6.671875 -5.046875 11.625q-3.25 4.9375 -7.90625 8.390625q-4.640625 3.453125 -10.34375 5.53125q-5.703125 2.078125 -12.375 3.03125q-6.671875 0.9375 -14.015625 0.9375l-46.171875 0l0 -89.453125l46.03125 0q11.0 0 20.4375 2.15625q9.453125 2.140625 16.375 7.328125q6.9375 5.171875 10.875 13.765625q3.9375 8.59375 3.9375 21.40625zm-8.390625 0q0 -7.28125 -1.4375 -12.875q-1.4375 -5.609375 -4.109375 -9.734375q-2.65625 -4.140625 -6.5 -6.9375q-3.84375 -2.796875 -8.671875 -4.515625q-4.8125 -1.734375 -10.484375 -2.453125q-5.65625 -0.71875 -12.03125 -0.71875l-37.890625 0l0 74.546875l37.890625 0q9.578125 0 17.515625 -1.71875q7.9375 -1.734375 13.625 -6.0q5.703125 -4.265625 8.890625 -11.453125q3.203125 -7.203125 3.203125 -18.140625z" fill-rule="nonzero"/></g></svg>